<?xml version="1.0" standalone="no"?>
<!DOCTYPE svg PUBLIC "-//W3C//DTD SVG 20010904//EN"
 "http://www.w3.org/TR/2001/REC-SVG-20010904/DTD/svg10.dtd">
<svg version="1.0" xmlns="http://www.w3.org/2000/svg"
 width="1500.000000pt" height="1500.000000pt" viewBox="0 0 1500.000000 1500.000000"
 preserveAspectRatio="xMidYMid meet">
<metadata>
Created by potrace 1.15, written by Peter Selinger 2001-2017
</metadata>
<g transform="translate(0.000000,1500.000000) scale(0.100000,-0.100000)"
fill="#000000" stroke="none">
<path d="M7255 14194 c-883 -66 -1653 -264 -2418 -620 -1408 -655 -2566 -1813
-3221 -3221 -320 -688 -512 -1382 -598 -2158 -20 -189 -23 -257 -23 -680 0
-517 12 -680 75 -1066 308 -1866 1344 -3471 2915 -4516 888 -590 1905 -953
3010 -1075 189 -20 257 -23 680 -23 517 0 680 12 1066 75 1610 266 3028 1073
4068 2314 771 921 1272 2020 1471 3225 63 386 75 549 75 1066 0 517 -12 680
-75 1066 -261 1579 -1049 2985 -2250 4014 -942 808 -2074 1330 -3315 1529
-348 56 -517 68 -980 71 -236 1 -452 1 -480 -1z m685 -804 c1314 -90 2491
-571 3490 -1426 148 -126 467 -446 594 -594 331 -386 579 -760 809 -1220 562
-1122 752 -2374 547 -3606 -178 -1067 -638 -2045 -1356 -2884 -126 -148 -446
-468 -594 -594 -1094 -936 -2435 -1436 -3855 -1436 -1420 0 -2761 500 -3855
1436 -148 126 -468 446 -594 594 -651 761 -1088 1632 -1301 2594 -148 668
-174 1422 -74 2111 161 1107 632 2136 1375 3005 126 148 446 468 594 594 992
848 2177 1335 3470 1425 169 12 583 12 750 1z"/>
<path d="M8115 12174 c11 -3 85 -21 165 -40 375 -92 790 -256 1124 -443 578
-324 1063 -748 1456 -1273 779 -1040 1084 -2362 839 -3638 -218 -1135 -845
-2137 -1771 -2830 -1040 -779 -2362 -1084 -3638 -839 -660 127 -1272 390
-1835 789 l-60 42 49 -43 c273 -243 704 -519 1078 -691 997 -458 2105 -559
3156 -288 1040 269 1953 877 2596 1730 805 1067 1122 2426 871 3732 -282 1461
-1232 2703 -2570 3358 -380 185 -826 331 -1235 404 -134 23 -272 42 -225 30z"/>
</g>
</svg>
